<?xml version="1.0" encoding="UTF-8"?>
<svg id="Layer_1" xmlns="http://www.w3.org/2000/svg" version="1.1" viewBox="0 0 157 37.93">
  <!-- Generator: Adobe Illustrator 29.7.1, SVG Export Plug-In . SVG Version: 2.1.1 Build 8)  -->
  <defs>
    <style>
      .st0 {
        fill: #fff;
      }
    </style>
  </defs>
  <path class="st0" d="M13.71,10.86c1,0,1.87.13,2.62.4,1.37.46,2.53,1.39,3.29,2.62.35.57.64,1.19.84,1.83.2.63.35,1.27.43,1.93.08.6.12,1.2.12,1.81,0,1.42-.17,2.71-.51,3.85-.31,1.08-.84,2.08-1.55,2.95-.71.83-1.6,1.48-2.61,1.89-1.05.44-2.27.66-3.67.66-.68,0-1.36-.04-2.04-.14-.48-.07-.96-.18-1.42-.32-.29-.09-.58-.2-.85-.33-.11-.05-.22-.11-.31-.19-.02-.02-.05-.04-.08-.05s-.06,0-.09,0c-.03.01-.05.03-.06.05-.02.02-.02.05-.02.08v5.86c0,.52.11.93.33,1.25.2.3.45.55.75.75.25.17.53.3.82.39.18.06.37.1.55.13.08.02.16.06.22.12.02.02.04.05.04.08v.09c-.01.07-.05.13-.1.17-.07.05-.15.08-.23.08H.34c-.08,0-.17-.02-.23-.08-.05-.04-.09-.1-.1-.17v-.09s.02-.06.04-.08c.06-.06.13-.11.22-.12.19-.03.37-.08.55-.13.29-.09.57-.22.82-.39.3-.2.55-.45.75-.75.22-.31.33-.73.33-1.25V14.77c0-.07,0-.14-.05-.19-.04-.06-.1-.09-.17-.11-.09-.01-.18-.03-.27-.06-.16-.04-.33-.08-.53-.13-.2-.05-.38-.09-.55-.13-.17-.04-.27-.06-.31-.08-.16-.04-.25-.12-.25-.26,0-.13.08-.22.27-.27.53-.13,1.06-.28,1.58-.46.57-.19,1.14-.42,1.71-.66.57-.25,1.13-.51,1.67-.79.5-.26.98-.55,1.44-.86.1-.07.22-.11.35-.09.12.01.18.11.18.28v2.44s0,.07.02.1c.02.03.04.05.07.07.03.01.06.01.09,0,.03-.01.06-.03.07-.06.11-.14.3-.36.56-.65.32-.34.68-.64,1.08-.89.53-.33,1.09-.59,1.69-.77.76-.23,1.55-.35,2.35-.33h-.01ZM15.58,20.34v-1.13c0-.5-.05-1.01-.11-1.51-.07-.55-.18-1.1-.33-1.64-.14-.53-.36-1.03-.66-1.49-.29-.44-.66-.81-1.1-1.08-.45-.28-1-.42-1.67-.42-.85,0-1.53.16-2.04.47-.48.28-.88.68-1.18,1.15-.27.44-.45.93-.54,1.44-.08.45-.13.9-.13,1.35v5.1c0,.54.06,1.08.16,1.61.1.59.3,1.15.57,1.68.27.52.65.97,1.12,1.33s1.08.54,1.82.54,1.36-.19,1.88-.57c.54-.41.98-.94,1.27-1.56.36-.74.6-1.53.72-2.34.16-.96.23-1.94.23-2.92h0Z"/>
  <path class="st0" d="M43.75,27.78c.08.02.16.06.22.12.02.02.04.05.04.08v.1c0,.07-.05.13-.1.17-.07.05-.15.08-.23.08h-9.4c-.08,0-.17-.02-.23-.08-.05-.04-.09-.1-.1-.17v-.1s.02-.06.04-.08c.06-.06.13-.11.22-.12.17-.03.34-.07.51-.12.27-.08.52-.2.75-.36.27-.19.51-.43.68-.72.2-.31.3-.71.3-1.22v-8.14c0-.53-.05-1.07-.12-1.63-.06-.53-.21-1.05-.43-1.53-.22-.45-.54-.85-.96-1.13-.42-.3-.98-.44-1.68-.44s-1.29.14-1.68.43c-.39.27-.69.64-.89,1.08-.19.43-.32.9-.36,1.37-.04.49-.07.92-.07,1.29v8.7c0,.5.1.91.3,1.22.18.28.41.53.68.72.23.16.48.28.75.36.17.05.34.09.51.12.08.02.16.06.22.12.02.02.04.05.04.08v.1c0,.07-.05.13-.1.17-.07.05-.15.08-.23.08h-9.4c-.08,0-.17-.02-.23-.08-.05-.04-.09-.1-.1-.17v-.1s.02-.06.04-.08c.06-.06.13-.11.22-.12.17-.03.35-.07.51-.12.27-.08.52-.2.75-.36.27-.19.51-.43.68-.72.2-.31.3-.71.3-1.22V4.1c0-.07-.01-.14-.05-.19-.04-.06-.1-.09-.17-.11-.09,0-.18-.03-.27-.06-.16-.04-.33-.08-.53-.13s-.38-.09-.55-.13c-.17-.04-.27-.06-.31-.08-.16-.04-.25-.12-.25-.26,0-.13.08-.22.27-.27.53-.13,1.06-.28,1.58-.46.57-.19,1.14-.42,1.71-.66.57-.25,1.13-.51,1.66-.79.5-.26.98-.55,1.44-.86.1-.07.22-.11.35-.09.12,0,.18.11.18.28v12.38c.28-.25.58-.48.9-.69.36-.23.74-.42,1.13-.57.46-.17.93-.31,1.4-.4.56-.1,1.14-.16,1.71-.15,1.02,0,1.88.11,2.57.34.63.19,1.21.5,1.72.9.44.36.79.8,1.05,1.31.24.48.42,1,.53,1.53.11.52.17,1.05.19,1.58.02.52.03,1.01.03,1.46v7.38c0,.5.1.91.3,1.22.18.28.41.53.68.72.23.16.48.28.75.36.17.05.34.09.51.12h.02Z"/>
  <path class="st0" d="M54.48,10.86c1.22-.01,2.42.22,3.55.69,1.04.43,1.99,1.08,2.78,1.89.78.81,1.4,1.77,1.82,2.82.44,1.1.66,2.28.66,3.47s-.23,2.41-.71,3.52c-.72,1.66-1.9,3.07-3.41,4.06s-3.26,1.51-5.06,1.49c-1.22.01-2.42-.22-3.54-.69-1.04-.43-1.99-1.08-2.78-1.89-.78-.81-1.4-1.77-1.82-2.81-.44-1.11-.67-2.29-.66-3.48,0-1.2.24-2.4.71-3.5.71-1.66,1.9-3.08,3.4-4.06,1.5-.99,3.26-1.51,5.06-1.5h0ZM54.29,27.79c.58,0,1.14-.22,1.56-.62.44-.42.81-.99,1.1-1.71.32-.82.54-1.67.67-2.54.3-2.05.3-4.14,0-6.19-.12-.87-.35-1.72-.66-2.54-.29-.72-.66-1.29-1.1-1.71-.42-.4-.98-.62-1.56-.62s-1.14.22-1.56.62c-.44.41-.81.98-1.11,1.71-.32.82-.55,1.67-.66,2.54-.29,2.05-.29,4.14,0,6.19.12.87.34,1.72.66,2.54.3.72.67,1.29,1.11,1.71.42.4.98.63,1.56.62h0Z"/>
  <path class="st0" d="M76.64,25.59c.22-.11.39-.1.49.04.05.06.08.14.08.21,0,.08-.02.16-.06.22-.23.41-.52.78-.85,1.11-.35.34-.74.63-1.17.87-.45.25-.93.44-1.43.57-.54.13-1.09.2-1.64.2-.63,0-1.25-.08-1.85-.25-.61-.16-1.17-.46-1.65-.88-.49-.42-.88-.99-1.19-1.72-.31-.72-.46-1.65-.46-2.77v-10.67s-.02-.04-.03-.05-.03-.03-.05-.03h-.55c-.3,0-.48-.02-.55-.06s-.1-.12-.1-.25c.01-.19.09-.38.22-.52.06-.09.14-.15.23-.2.09-.05.2-.07.3-.07h.41c.09,0,.13-.05.13-.15v-4.51c0-.28.11-.43.34-.47.31-.06.65-.15,1-.25.36-.11.72-.23,1.09-.38.37-.14.73-.3,1.09-.47.34-.16.67-.34.98-.54.06-.04.12-.06.19-.06s.13,0,.2.03c.12.05.18.18.18.38v6.31c0,.09.05.13.15.13h3.52c.3,0,.48.02.55.06s.1.12.1.25c0,.16-.09.34-.26.52-.07.08-.16.15-.26.2s-.21.07-.32.08h-3.4s-.03.02-.05.03c-.01.01-.02.03-.03.05v11.66c0,.31.05.61.18.9.11.25.27.47.47.66.19.18.42.32.67.4.25.09.51.13.78.13.51,0,1.01-.08,1.49-.24.37-.12.74-.26,1.09-.44l-.03-.03Z"/>
  <path class="st0" d="M87.63,10.86c1.22-.01,2.42.22,3.55.69,1.04.43,1.99,1.08,2.78,1.89.78.81,1.4,1.77,1.82,2.82.44,1.1.66,2.28.66,3.47s-.23,2.41-.71,3.52c-.72,1.66-1.9,3.07-3.41,4.06s-3.26,1.51-5.06,1.49c-1.22.01-2.42-.22-3.55-.69-1.04-.43-1.99-1.08-2.78-1.89-.78-.81-1.4-1.77-1.82-2.81-.44-1.11-.67-2.29-.66-3.48,0-1.2.24-2.4.71-3.5.71-1.66,1.9-3.08,3.4-4.07,1.51-.99,3.27-1.51,5.06-1.49h.01ZM87.44,27.79c.58,0,1.14-.22,1.56-.62.44-.42.81-.99,1.1-1.71.32-.82.54-1.67.66-2.54.3-2.05.3-4.14,0-6.19-.12-.87-.35-1.72-.66-2.54-.29-.72-.66-1.29-1.1-1.71-.42-.4-.98-.62-1.56-.62s-1.14.22-1.56.62c-.44.41-.81.98-1.11,1.71-.32.82-.55,1.67-.66,2.54-.29,2.05-.29,4.14,0,6.19.12.87.34,1.72.66,2.54.3.72.67,1.29,1.11,1.71.42.41.98.63,1.56.62Z"/>
  <path class="st0" d="M105.69,25.36c0,.5.1.91.3,1.22.18.28.41.53.68.72.23.16.48.28.75.36.17.05.34.09.51.12.08.02.16.06.22.12.02.02.04.05.04.08v.1c-.01.07-.05.13-.1.17-.07.05-.15.08-.23.08h-9.4c-.08,0-.17-.02-.23-.08-.05-.04-.09-.1-.1-.17v-.1s.02-.06.04-.08c.06-.06.13-.11.22-.12.17-.03.35-.07.51-.12.27-.08.52-.2.75-.36.27-.19.51-.43.68-.72.2-.31.3-.71.3-1.22v-10.5c0-.07-.01-.14-.05-.19-.04-.06-.1-.09-.17-.11-.09-.01-.18-.03-.27-.06-.16-.04-.33-.08-.53-.13s-.38-.09-.55-.13c-.17-.04-.27-.06-.31-.08-.16-.04-.25-.12-.25-.26,0-.13.08-.22.27-.27.53-.13,1.06-.28,1.58-.46.57-.19,1.14-.42,1.71-.66.57-.25,1.13-.51,1.67-.79.5-.26.98-.55,1.44-.86.1-.07.22-.11.35-.09.12.01.18.11.18.28v14.31h-.01ZM105.84,4.1c-.14-.36-.36-.68-.63-.95s-.6-.49-.95-.64c-.39-.16-.81-.24-1.23-.24-.83,0-1.64.32-2.24.9-.28.28-.51.61-.66.97-.16.37-.25.77-.24,1.18,0,.4.07.8.23,1.17.14.36.36.68.63.94.58.56,1.36.88,2.16.87.43,0,.85-.08,1.24-.25.37-.16.71-.38,1-.65s.52-.61.68-.98.24-.77.24-1.17-.07-.8-.23-1.17v.02Z"/>
  <path class="st0" d="M110.63,27.02s-.03-.2-.08-.54c-.06-.34-.11-.7-.18-1.1-.06-.4-.12-.78-.18-1.14-.06-.36-.09-.58-.1-.67-.03-.18.02-.28.15-.31.05-.02.11-.02.16,0s.09.05.12.1c.07.14.15.27.24.4.15.23.36.5.62.83s.58.68.94,1.06c.38.39.79.74,1.24,1.05.46.32.96.59,1.49.79.55.21,1.13.32,1.72.31.71,0,1.27-.2,1.67-.59.41-.39.61-.91.61-1.55,0-.34-.04-.68-.13-1-.11-.37-.3-.7-.56-.98-.36-.39-.78-.71-1.24-.97-.69-.39-1.41-.72-2.15-.97s-1.44-.6-2.08-1.04c-.53-.37-.99-.82-1.37-1.34-.34-.49-.6-1.03-.76-1.61-.16-.59-.24-1.21-.23-1.82,0-.55.1-1.09.26-1.61.19-.61.51-1.17.95-1.64.46-.51,1.08-.94,1.86-1.28.79-.35,1.79-.52,3.01-.52.72,0,1.44.06,2.15.19.58.11,1.16.25,1.73.42.4.12.8.27,1.18.44.29.14.46.21.5.23.05.02.1.05.13.09.02.04.03.09.04.13,0,.03.03.2.09.52s.12.67.19,1.05c.06.38.12.72.19,1.04.06.31.09.49.09.53.02.05.01.11-.01.16-.02.05-.07.09-.12.11-.11.06-.21.02-.3-.1-.26-.35-.53-.69-.82-1.02-.88-.99-1.96-1.79-3.15-2.35-.65-.31-1.37-.47-2.09-.46-.77,0-1.34.21-1.7.62-.36.42-.56.95-.54,1.51,0,.3.04.59.13.88.11.32.31.6.56.82.38.32.79.59,1.24.8.7.33,1.43.61,2.18.82,1.82.57,3.2,1.33,4.14,2.3s1.4,2.22,1.4,3.76c0,.74-.13,1.47-.4,2.16-.26.66-.68,1.25-1.22,1.72-.55.48-1.25.86-2.09,1.14-.85.28-1.86.42-3.04.42-.88,0-1.76-.06-2.63-.22-.66-.12-1.31-.28-1.95-.48-.43-.13-.84-.3-1.25-.5-.3-.16-.47-.26-.52-.29-.03-.03-.05-.07-.07-.11-.02-.06-.03-.11-.04-.17l.02-.02Z"/>
  <path class="st0" d="M156.73,27.78c.08.02.16.06.22.12.02.02.04.05.04.08v.1c0,.07-.05.13-.1.17-.07.05-.15.08-.23.08h-8.8c-.09,0-.17-.02-.23-.08-.05-.04-.09-.1-.1-.17v-.1s.02-.06.04-.08c.06-.06.13-.11.21-.12.16-.02.32-.06.47-.1.23-.07.45-.17.65-.31.24-.17.44-.4.58-.66.17-.29.25-.69.25-1.19v-8.74c0-.51-.06-1.02-.13-1.52-.07-.48-.21-.95-.43-1.38-.21-.41-.51-.75-.89-1-.38-.26-.89-.39-1.52-.39-.55,0-1,.09-1.34.28-.32.17-.6.42-.8.73-.19.3-.33.64-.4.99-.07.36-.12.73-.13,1.09v9.93c0,.5.08.9.25,1.19.14.26.34.49.58.66.2.14.42.25.65.31.15.04.31.08.47.1.08.02.16.06.22.12.02.02.04.05.04.08v.1c0,.07-.05.13-.1.17-.07.05-.15.08-.23.08h-8.8c-.08,0-.17-.02-.23-.08-.05-.04-.09-.1-.1-.17v-.1s.02-.06.04-.08c.06-.06.13-.11.21-.12.16-.02.32-.06.47-.1.23-.07.45-.17.64-.31.24-.17.44-.4.58-.66.17-.29.25-.69.25-1.19v-8.76c0-.5-.06-1.01-.13-1.51-.07-.48-.21-.94-.43-1.37-.21-.41-.52-.75-.9-1-.39-.26-.89-.39-1.52-.39-.56,0-1.01.09-1.35.28-.32.17-.59.42-.8.73-.2.3-.33.65-.39,1-.07.36-.11.73-.12,1.1v9.91c0,.5.08.9.25,1.19.14.26.34.49.58.66.2.14.41.25.65.31.15.04.31.08.47.1.08.02.16.06.22.12.02.02.04.05.04.08v.1c0,.07-.05.13-.1.17-.07.05-.15.08-.23.08h-8.8c-.08,0-.17-.02-.23-.08-.05-.04-.09-.1-.1-.17v-.1s.02-.06.04-.08c.06-.06.13-.11.22-.12.16-.02.31-.06.47-.1.23-.07.45-.17.65-.31.24-.17.44-.4.58-.66.17-.29.25-.69.25-1.19v-10.65c0-.07,0-.14-.05-.19-.04-.06-.1-.09-.17-.11-.09-.01-.18-.03-.27-.06-.16-.04-.33-.08-.53-.13s-.38-.09-.55-.13c-.17-.04-.27-.06-.31-.08-.16-.04-.25-.12-.25-.26,0-.13.08-.22.27-.27.53-.13,1.06-.28,1.58-.46.57-.19,1.14-.42,1.71-.66.57-.25,1.13-.51,1.67-.79.5-.26.98-.55,1.44-.86.1-.07.22-.11.35-.09.12.01.18.11.18.28v1.4c.61-.47,1.29-.85,2.01-1.12.78-.31,1.71-.46,2.8-.46.64,0,1.27.05,1.89.17.5.1.98.26,1.43.48.38.19.73.44,1.04.74.28.28.52.59.71.93.3-.31.62-.59.96-.85.38-.29.8-.54,1.24-.75.49-.23,1.01-.41,1.54-.53.62-.14,1.25-.21,1.88-.2,1.01,0,1.86.11,2.54.34.61.19,1.18.5,1.68.9.42.36.76.8,1,1.31.22.49.39,1,.49,1.53.1.52.16,1.05.17,1.58,0,.52.02,1.01.02,1.46v7.53c0,.5.08.9.25,1.19.14.26.34.49.58.66.2.14.41.25.65.31.15.04.3.08.45.1l-.02.02Z"/>
</svg>