<?xml version="1.0" encoding="UTF-8"?>
<svg id="Layer_1" xmlns="http://www.w3.org/2000/svg" version="1.1" viewBox="0 0 512 512">
  <!-- Generator: Adobe Illustrator 29.8.0, SVG Export Plug-In . SVG Version: 2.1.1 Build 160)  -->
  <defs>
    <style>
      .st0 {
        fill: #fff;
      }
    </style>
  </defs>
  <path class="st0" d="M4.92,497.79c-7.9-6.34,20.77-11.82,23.79-13.29,22.17-10.76,23.09-27.33,28.72-48.76,33.68-128.15,52.03-264.26,84.91-393.06-1.81-18.81-14.58-20.58-27.99-28.48l193.08,1.65-90.05,422.15c-5.22,33.13,16.73,52.36,48.21,53.36,1.07.84-4.1,6.44-4.83,6.44H4.92Z"/>
  <path class="st0" d="M265.6,352.24L341.58,15.64c49.32,2.53,91.47-11.88,128.41,29.27,51.33,57.2,51.23,220.86,0,278.25-7.35,8.23-35.31,29.08-45.09,29.08h-159.3Z"/>
</svg>