<?xml version="1.0" encoding="UTF-8"?>
<svg id="Layer_1" xmlns="http://www.w3.org/2000/svg" version="1.1" viewBox="0 0 512 512">
  <!-- Generator: Adobe Illustrator 30.0.0, SVG Export Plug-In . SVG Version: 2.1.1 Build 123)  -->
  <defs>
    <style>
      .st0 {
        fill: #feb800;
      }

      .st1 {
        fill: #2684fc;
      }

      .st2 {
        fill: #00832d;
      }

      .st3 {
        fill: #e94235;
      }

      .st4 {
        fill: #00ab48;
      }

      .st5 {
        fill: #fefefe;
      }

      .st6 {
        fill: #0166d9;
      }
    </style>
  </defs>
  <path class="st1" d="M338.35,326.02l5.25,1.82c22.36,38.34,44.62,76.74,66.78,115.22l-2.14,3.85c-9.66,5.28-9.72,6.36-21.63,7.64-56.07,6.04-208.91,6.36-264.6-.01-9.02-1.03-13.97-3.08-21.65-7.63,2.49-7.5,5.08-15.05,9.05-21.91,15.59-26.99,31.52-53.99,47.69-80.64,4.11-6.78,9.61-12.61,15.04-18.34l5.05-3.78h156.11l5.05,3.78Z"/>
  <path class="st4" d="M187.25,59.69l4.16-.31,64.67,114.97-.83,6.23c5.02.6,4.8,2.34,0,3.78-2,6.65-4.09,13.38-7.55,19.43-20.35,35.55-41.04,71.16-62,106.36-1.75,2.94-3.96,5.6-6.23,8.26s-4.78,5.17-7.33,7.61l-4.2,3.61c-44.42.2-88.86.26-133.3.17l-2.27-3.78c.13-4.53-.61-9.22.45-13.71,4.04-17.23,117.67-212.04,134.04-234.29,7.35-10,8.25-12.95,20.4-18.32Z"/>
  <path class="st0" d="M478.13,326.02l-1.75,3.78h-133.06l-4.97-3.78c-32.3-44.11-60.13-92.07-83.11-141.66v-3.78l-.99-5.48c22.04-37.88,44.19-75.7,66.46-113.46l4.41-.05c17.12,9.67,23.49,26.84,33.63,42.87,27.74,43.84,98.7,155.61,114.74,198.81,3.26,8.77,4.59,13.15,4.63,22.76Z"/>
  <path class="st3" d="M478.13,326.02c.08,22.15-51.18,110.66-69.89,120.89l-69.89-120.89h139.77Z"/>
  <path class="st2" d="M325.13,61.58l-69.89,119-68-120.89c21.24-9.39,117.61-9.56,137.89,1.89Z"/>
  <path class="st6" d="M172.14,326.02c-23.56,40.45-47.03,81.14-71.78,120.89-17.14-10.15-68.59-100.71-68-120.89h139.77Z"/>
  <path class="st5" d="M338.35,326.02h-166.22c27.54-47.28,54.07-95.28,83.11-141.66,28.25,46.85,55.73,94.31,83.11,141.66Z"/>
</svg>